<?xml version="1.0" encoding="UTF-8"?>
<svg version="1.1" xmlns="http://www.w3.org/2000/svg" width="512" height="512">
<path d="M0 0 C7.91204813 5.01804395 7.91204813 5.01804395 10.09423828 8.9934082 C11.53904957 11.49139186 12.75368784 13.16946716 15 15 C19.8314366 16.08866062 24.56758371 15.9355691 29.5 15.8125 C46.12841944 15.6375517 61.6410003 16.89292561 74.3125 28.75 C86.67054471 42.07035147 87.4476481 55.87095696 87.40405273 73.13037109 C87.4097613 75.1714668 87.41672744 77.21255932 87.42485046 79.25364685 C87.44274366 84.77645786 87.44162062 90.29910965 87.43590808 95.8219409 C87.4328105 100.44154834 87.43891506 105.06112544 87.44494683 109.68072855 C87.45897802 120.58372768 87.45744261 131.48664842 87.44604492 142.38964844 C87.43456659 153.61753239 87.44863793 164.8451774 87.4754414 176.07302988 C87.49763158 185.7319549 87.50422824 195.3908051 87.49836498 205.04975379 C87.49500199 210.81020877 87.49736678 216.57051064 87.51461601 222.33094406 C87.5301358 227.74999814 87.52607371 233.16869955 87.50731087 238.58773994 C87.50363884 240.56937787 87.50669272 242.55104222 87.51719666 244.53265572 C87.60023317 261.50154652 85.28487622 273.99215062 73.27734375 286.84375 C65.02026731 294.4956979 54.25307196 298.36324543 43.09765625 298.1953125 C42.3750914 298.1924826 41.65252655 298.18965271 40.9080658 298.18673706 C38.62603384 298.17564386 36.34441103 298.15056088 34.0625 298.125 C32.50456301 298.11495611 30.94661979 298.10583274 29.38867188 298.09765625 C25.59229301 298.07574033 21.7962156 298.04128738 18 298 C18.02320313 298.66169189 18.04640625 299.32338379 18.0703125 300.00512695 C18.23887728 308.23695765 16.68264801 313.74093752 11.203125 320.078125 C6.49147624 324.56361462 0.69108545 328 -6 328 C-5.9553872 334.2769441 -5.8850826 340.5529258 -5.79248047 346.8293457 C-5.76451404 348.95784788 -5.74318054 351.08644921 -5.72900391 353.21508789 C-5.61892247 368.82096647 -4.75640601 383.05497215 2.5625 397.1875 C2.89983154 397.84621094 3.23716309 398.50492187 3.5847168 399.18359375 C12.36984591 415.47149538 27.76432338 426.10706316 45.01171875 432.03515625 C64.09801591 437.28938658 83.41794051 434.15004849 100.7109375 424.9765625 C116.92096875 415.23514229 128.13208226 399.82775285 132.9375 381.5625 C135.22562541 371.39473743 135.15101645 361.16563787 135.15771484 350.80688477 C135.1623905 349.17648178 135.16753529 347.54608009 135.17311096 345.91567993 C135.18433843 342.41924222 135.19279807 338.92281276 135.19923019 335.42636299 C135.20996652 329.89065051 135.23022471 324.3549979 135.25234985 318.81932068 C135.31409003 303.08294411 135.36828452 287.34657236 135.40136719 271.61010742 C135.41974151 262.90779789 135.44870705 254.20559012 135.4893719 245.50335544 C135.51038348 240.90552197 135.52589098 236.30781634 135.52817917 231.70993233 C135.53033443 227.38499799 135.54629282 223.06033041 135.57256889 218.73547745 C135.57972821 217.15454138 135.58187931 215.57357288 135.57846642 213.99262428 C135.56321933 205.58258341 135.84447699 197.90276566 139 190 C139.27943136 189.29263986 139.55886272 188.58527971 139.8467617 187.85648441 C144.4622456 176.84626563 155.35881925 167.14282313 166.25 162.625 C177.89056589 158.25027752 192.81731893 158.1366851 204.36328125 162.7421875 C217.12578118 168.83037265 226.58180411 177.12709606 232 190.4609375 C234.00048022 196.25078891 235.12007911 201.69171196 235.15390015 207.83787537 C235.16250061 209.00564514 235.17110107 210.17341492 235.17996216 211.37657166 C235.18635208 213.28509666 235.18635208 213.28509666 235.19287109 215.23217773 C235.20077909 216.59262294 235.20904846 217.95306609 235.21765137 219.31350708 C235.2437781 223.77018251 235.25916378 228.22686693 235.2734375 232.68359375 C235.27879992 234.2204139 235.28417744 235.75723399 235.28956985 237.29405403 C235.31117963 243.6859719 235.32991721 250.07788732 235.34119225 256.46983242 C235.35744233 265.62025714 235.39066711 274.77025811 235.44759309 283.92052311 C235.48629525 290.36142877 235.50582489 296.80222105 235.51111281 303.24323994 C235.51476425 307.08775722 235.52676377 310.93182153 235.55921555 314.77621269 C235.58930382 318.39202467 235.59560598 322.00710969 235.58383179 325.62302017 C235.58350615 327.5780493 235.60796355 329.53303363 235.63320923 331.48789978 C235.56508278 341.07475942 235.56508278 341.07475942 232.67837524 344.76869202 C229.30325722 347.58044433 227.37843495 348.07681465 223 348 C219.37601345 346.81523517 217.57267298 345.80147279 215.35217285 342.69381714 C213.32157809 337.14671145 213.58611001 331.82379634 213.61523438 325.96142578 C213.60698705 323.94362183 213.59873895 321.92581789 213.59046173 319.90801406 C213.58447395 317.74647107 213.58584127 315.58504369 213.58930969 313.42349625 C213.59613762 308.90925533 213.58021968 304.39526735 213.56091309 299.881073 C213.52309995 290.29572892 213.51026749 280.71040722 213.5 271.125 C213.48891554 260.78232351 213.47348456 250.43976419 213.42928743 240.09716785 C213.41098659 235.6151202 213.40701893 231.13336331 213.41422272 226.65128732 C213.41538153 224.53125292 213.40972131 222.41136663 213.40104675 220.29135132 C213.39054071 217.71407159 213.39055066 215.13671737 213.40339661 212.55944824 C213.3299069 202.28631755 211.38505768 195.61131634 204.2578125 187.984375 C199.11145789 183.46128133 192.64220084 181.29137607 185.875 180.75 C177.33457325 181.30099527 170.14842514 183.93373644 164 190 C156.18996633 199.598591 156.70803673 210.50144612 156.72875977 222.27563477 C156.72436769 223.92733516 156.71906378 225.57903334 156.71292114 227.23072815 C156.70145412 230.77738866 156.69596412 234.32398968 156.69503975 237.87066841 C156.6930907 243.49170935 156.67498988 249.11262838 156.65428162 254.73362732 C156.60519941 268.69931688 156.57427555 282.66503954 156.55297852 296.63079834 C156.53640631 307.48006814 156.51344599 318.32923308 156.46995777 329.17843288 C156.44831941 334.75236722 156.44011066 340.32610169 156.44235051 345.90007508 C156.44066926 349.38727017 156.42653219 352.8743377 156.40913773 356.36148643 C156.40359596 357.96290269 156.40299879 359.56434606 156.40807533 361.16576385 C156.48603081 388.66834411 147.37010314 410.90569484 128.4375 431 C110.83209582 448.12085178 87.56265876 456.26132161 63.19042969 456.2487793 C38.39164208 455.90115611 16.29921436 445.46706393 -1.6875 428.75 C-18.90452109 410.46492549 -27.23363623 387.45383711 -27.09765625 362.47265625 C-27.0962413 361.48373886 -27.09482635 360.49482147 -27.09336853 359.47593689 C-27.08780088 356.33809296 -27.0752544 353.20032213 -27.0625 350.0625 C-27.05748082 347.92643333 -27.05291864 345.79036553 -27.04882812 343.65429688 C-27.03784206 338.43617325 -27.02113636 333.21809185 -27 328 C-27.62081955 327.87107864 -28.2416391 327.74215729 -28.88127136 327.60932922 C-30.10056084 327.34892097 -30.10056084 327.34892097 -31.34448242 327.08325195 C-32.15092697 326.9130806 -32.95737152 326.74290924 -33.78825378 326.56758118 C-39.73409828 325.04175087 -44.70529246 320.00307441 -48 315 C-50.39324198 310.64088068 -51.1597609 307.7374268 -51.078125 302.76171875 C-51.06120605 301.42113403 -51.06120605 301.42113403 -51.04394531 300.0534668 C-51.02944336 299.37582275 -51.01494141 298.69817871 -51 298 C-51.93682617 298.02094727 -52.87365234 298.04189453 -53.83886719 298.06347656 C-57.37266213 298.13235636 -60.90572613 298.18213653 -64.43994141 298.21972656 C-65.95861185 298.23962882 -67.47720788 298.26676104 -68.99560547 298.30175781 C-84.32959633 298.64588698 -96.44866856 295.97302817 -108 285.12109375 C-116.08088649 276.50032045 -120.31305008 266.06804284 -120.26742554 254.34211731 C-120.27195665 253.48312244 -120.27648776 252.62412756 -120.28115618 251.73910254 C-120.29379274 248.86743584 -120.29218028 245.99595897 -120.29052734 243.12426758 C-120.29651314 241.06243649 -120.30331881 239.00060764 -120.31088257 236.93878174 C-120.3285467 231.34145753 -120.33323819 225.74419449 -120.33451414 220.1468451 C-120.33593632 216.64744256 -120.34020723 213.14805553 -120.34550858 209.64865685 C-120.36401179 197.43332305 -120.37217902 185.21803289 -120.37060547 173.00268555 C-120.36940471 161.62832236 -120.39049348 150.25414913 -120.4220928 138.879834 C-120.44827636 129.10551527 -120.45897185 119.33125849 -120.45769465 109.55690497 C-120.45718554 103.72319498 -120.46284069 97.88965374 -120.48405075 92.05597878 C-120.50346746 86.5655897 -120.50353395 81.07552971 -120.48901749 75.58512878 C-120.48693241 73.57565516 -120.49161222 71.56616076 -120.5037384 69.55672264 C-120.58589564 54.99321733 -119.25110318 43.83961137 -110 32 C-109.52175781 31.38382813 -109.04351562 30.76765625 -108.55078125 30.1328125 C-101.22946409 21.83409028 -89.8222007 17.2361854 -79 16 C-73.05666057 15.80648844 -67.09404209 15.79106505 -61.14794922 15.92089844 C-53.00456857 16.36327425 -53.00456857 16.36327425 -45.82714844 13.27539062 C-44.32504906 11.24964917 -43.19061977 9.21699779 -42 7 C-31.868281 -4.00109262 -13.3400823 -7.29051009 0 0 Z " fill="#010000" transform="translate(179,27)"/>
<path d="M0 0 C55.11 0 110.22 0 167 0 C167.103125 22.56375 167.20625 45.1275 167.3125 68.375 C167.35802002 75.48853027 167.40354004 82.60206055 167.45043945 89.93115234 C167.47302246 98.64575195 167.47302246 98.64575195 167.47721863 102.73086548 C167.48186012 105.57229297 167.50052868 108.41324913 167.52787781 111.25454712 C167.56238754 114.88836649 167.57241716 118.52150878 167.56536138 122.15547681 C167.5675257 124.10554939 167.59423333 126.05554855 167.62214375 128.00542259 C167.57213515 136.51867518 166.11949073 143.44459296 160.27370167 149.90897179 C152.81445384 157.09700531 144.21556083 157.44207264 134.37695312 157.40405273 C133.13042465 157.41091599 131.88389618 157.41777924 130.59959412 157.42485046 C127.20069251 157.43995652 123.80234209 157.44162921 120.4034481 157.43590808 C117.55808123 157.43280511 114.71276338 157.4389208 111.86740351 157.44494683 C105.15195751 157.45896339 98.43663882 157.4574542 91.72119141 157.44604492 C84.8091603 157.43456068 77.89751707 157.44865074 70.98553705 157.4754414 C65.0345292 157.49763779 59.08364277 157.50422712 53.13259649 157.49836498 C49.58550053 157.49500427 46.03865327 157.49735125 42.49159241 157.51461601 C38.53525727 157.53303508 34.57939514 157.51885748 30.62304688 157.50170898 C28.87567482 157.51621094 28.87567482 157.51621094 27.09300232 157.53100586 C19.27201943 157.46010963 13.846016 156.36271133 7.79296875 151.0703125 C7.26316406 150.42835938 6.73335938 149.78640625 6.1875 149.125 C5.64480469 148.48820313 5.10210937 147.85140625 4.54296875 147.1953125 C1.26971252 142.53817325 -0.37627518 138.72011736 -0.36076355 133.00149536 C-0.36696229 131.23842135 -0.36696229 131.23842135 -0.37328625 129.43972969 C-0.36249192 128.15911596 -0.3516976 126.87850224 -0.34057617 125.55908203 C-0.33965641 124.16664086 -0.34005893 122.77419828 -0.34167194 121.38175774 C-0.34234742 117.66299012 -0.32499822 113.94451387 -0.30384064 110.22581482 C-0.28671753 106.73248405 -0.28594922 103.23922306 -0.28381348 99.74584961 C-0.26809037 89.53886136 -0.22620672 79.33192697 -0.1875 69.125 C-0.125625 46.31375 -0.06375 23.5025 0 0 Z " fill="#E32D43" transform="translate(79,148)"/>
<path d="M0 0 C5.08884191 3.2794759 7.33321185 7.54306201 9.6875 12.9453125 C11.19736284 15.45126541 12.21784458 16.36461201 14.8125 17.8125 C17.9814841 18.26203092 21.1317527 18.22954199 24.328125 18.21875 C25.25792175 18.22958618 26.18771851 18.24042236 27.14569092 18.25158691 C30.11803109 18.28584123 33.08998849 18.30143188 36.0625 18.3125 C39.96390653 18.32713107 43.86446692 18.36097088 47.765625 18.40625 C48.65235901 18.40322876 49.53909302 18.40020752 50.45269775 18.39709473 C56.98525313 18.47504255 62.52565137 19.47741869 67.984375 23.35546875 C68.50515625 23.89816406 69.0259375 24.44085938 69.5625 25 C70.35914063 25.79470703 70.35914063 25.79470703 71.171875 26.60546875 C83.94549633 43.78903077 76.8125 57.96019796 76.8125 82.8125 C21.7025 82.8125 -33.4075 82.8125 -90.1875 82.8125 C-90.1875 33.92653509 -90.1875 33.92653509 -84.40625 26.53515625 C-83.8390625 25.98730469 -83.271875 25.43945312 -82.6875 24.875 C-82.1203125 24.30910156 -81.553125 23.74320313 -80.96875 23.16015625 C-79.02012593 21.68586831 -77.54511337 21.33150408 -75.1875 20.8125 C-75.17291748 21.54364014 -75.15833496 22.27478027 -75.14331055 23.02807617 C-75.0686709 26.35257371 -74.97206199 29.67608467 -74.875 33 C-74.85244141 34.15048828 -74.82988281 35.30097656 -74.80664062 36.48632812 C-74.77119141 37.59814453 -74.73574219 38.70996094 -74.69921875 39.85546875 C-74.67303467 40.87664795 -74.64685059 41.89782715 -74.61987305 42.94995117 C-74.12587295 46.22050518 -73.12338946 48.1509116 -71.1875 50.8125 C-67.99516515 52.40866743 -64.65288503 52.32716114 -61.1875 51.8125 C-58.75630377 49.94234906 -57.54680827 48.53111655 -56.1875 45.8125 C-56.03338894 43.7817523 -55.93767547 41.74643579 -55.87109375 39.7109375 C-55.80825195 37.89335938 -55.80825195 37.89335938 -55.74414062 36.0390625 C-55.70482422 34.76804688 -55.66550781 33.49703125 -55.625 32.1875 C-55.56022461 30.269375 -55.56022461 30.269375 -55.49414062 28.3125 C-55.38780114 25.14594652 -55.28577167 21.97931247 -55.1875 18.8125 C-54.43130371 18.8031543 -53.67510742 18.79380859 -52.89599609 18.78417969 C-49.45084866 18.730308 -46.00703438 18.64669159 -42.5625 18.5625 C-41.37269531 18.54832031 -40.18289062 18.53414062 -38.95703125 18.51953125 C-30.22843988 18.37350916 -30.22843988 18.37350916 -23.1875 13.8125 C-21.87321405 11.68321178 -21.87321405 11.68321178 -21.1875 9.375 C-19.34180054 4.68738674 -17.33987505 2.63964897 -13.1875 -0.1875 C-8.48227445 -1.75590852 -4.66101184 -1.73645539 0 0 Z " fill="#E1F0FB" transform="translate(169.1875,45.1875)"/>
<path d="M0 0 C6.67558352 5.13296402 11.82456432 12.43151689 17 19 C17.76699219 19.95003906 18.53398437 20.90007812 19.32421875 21.87890625 C29.11683764 34.36491098 35.00483808 45.90398267 34 62 C32.31779483 71.93641527 27.16996801 81.08943359 19.34765625 87.46484375 C9.63538741 93.81579492 -1.3046029 96.46161946 -12.7421875 94.5390625 C-23.28692511 91.99996138 -31.70637889 86.91176749 -38 78 C-43.95619706 68.23482425 -45.85295484 57.32165349 -43.34765625 46.0703125 C-39.33454037 34.18597792 -32.08681459 24.40761944 -24 15 C-22.97588967 13.75813641 -21.95386063 12.5145544 -20.93359375 11.26953125 C-19.87296059 9.99171852 -18.81176812 8.71436982 -17.75 7.4375 C-17.2547583 6.82922363 -16.7595166 6.22094727 -16.24926758 5.59423828 C-11.54215509 0.00963584 -7.40119423 -2.25799146 0 0 Z " fill="#000000" transform="translate(408,394)"/>
<path d="M0 0 C6.66268719 4.51985458 11.66398147 10.55315523 13.609375 18.484375 C15.07018931 27.89201917 13.72373588 36.1921573 8.52734375 44.296875 C3.61433215 50.47588722 -3.22742561 54.49120615 -11 56 C-20.39616125 56.8438694 -28.54828206 54.96137436 -36 49 C-41.85615489 43.51077211 -45.41541077 37.03140843 -46.34765625 29.0078125 C-46.62570543 19.50578409 -44.99103277 12.98456025 -38.8125 5.6875 C-28.43910695 -5.19273636 -13.19111116 -7.51871092 0 0 Z " fill="#000000" transform="translate(341,43)"/>
<path d="M0 0 C6.11686401 3.7278742 10.97805958 9.51430279 13.125 16.37109375 C14.92406727 25.12548357 13.14044774 31.78292336 8.46484375 39.25390625 C4.58689487 44.49899643 -1.16845924 47.20967316 -7.4375 48.5 C-14.38226703 49.32418441 -20.402181 48.061337 -26.4375 44.5 C-32.05680812 39.63977291 -35.97928399 33.96760605 -36.75 26.453125 C-37.0713301 17.73704616 -35.73724505 12.32075743 -30.0625 5.75 C-21.66109811 -1.45120162 -10.71503521 -4.7880177 0 0 Z " fill="#000000" transform="translate(469.4375,247.5)"/>
<path d="M0 0 C5.61676026 3.65587946 9.59354645 8.40051676 11.578125 14.890625 C13.09238439 22.46192197 12.40904778 28.95203976 8.625 35.703125 C4.8744682 41.00435744 0.24392762 45.04934232 -6 47 C-15.45398134 47.97137682 -22.4884513 47.40700757 -29.9296875 41.45703125 C-36.1152392 35.84896882 -38.08810778 30.37340575 -38.5 22.125 C-38.29343141 15.01185538 -36.0649501 9.51874125 -31.390625 4.15234375 C-22.47830841 -4.16718114 -10.85073419 -5.27659103 0 0 Z " fill="#000000" transform="translate(274,347)"/>
<path d="M0 0 C6.71662512 5.70029369 10.31611754 11.62782789 11.15625 20.44921875 C10.77715978 28.19782277 8.05830988 34.17807816 2.73046875 39.78515625 C-2.77500661 44.66174965 -8.907123 46.599059 -16.21875 46.51171875 C-23.15473937 45.95541926 -28.29114755 43.41785017 -33.21875 38.51171875 C-39.28835522 30.54442059 -39.97834566 23.41948827 -39.21875 13.51171875 C-37.55783692 6.86806641 -32.83521157 2.18812451 -27.21875 -1.48828125 C-18.2984197 -5.79311726 -8.19350851 -5.85970178 0 0 Z " fill="#000000" transform="translate(98.21875,397.48828125)"/>
<path d="M0 0 C0.72246414 -0.00671722 1.44492828 -0.01343445 2.18928528 -0.02035522 C4.57368886 -0.03932712 6.95781083 -0.04325899 9.34228516 -0.04541016 C11.00371414 -0.05183873 12.66514199 -0.05856714 14.3265686 -0.06558228 C17.80839665 -0.07755306 21.29012549 -0.08126332 24.77197266 -0.08007812 C29.22639521 -0.07987496 33.68017955 -0.10717469 38.13445091 -0.14162254 C41.56605939 -0.16389636 44.99751441 -0.16791552 48.42918777 -0.16685867 C50.07099227 -0.169214 51.71280104 -0.17803374 53.35453415 -0.19352341 C55.6547751 -0.21319375 57.95364159 -0.20734249 60.25390625 -0.1953125 C62.21437393 -0.19958755 62.21437393 -0.19958755 64.21444702 -0.20394897 C68.35653566 0.37431816 70.52662596 1.68214714 73.75634766 4.29052734 C75.49266402 7.76316007 75.35825168 11.50245747 74.75634766 15.29052734 C72.5747562 18.04622181 70.88457272 19.72641481 67.75634766 21.29052734 C65.41405061 21.3982353 63.06861739 21.43946534 60.72387695 21.45166016 C59.63820938 21.45910751 59.63820938 21.45910751 58.53060913 21.46670532 C56.13058529 21.48133778 53.73062757 21.48813122 51.33056641 21.49365234 C49.66388446 21.49940354 47.99720253 21.50516127 46.33052063 21.51092529 C42.83256725 21.52143879 39.33463688 21.52727896 35.83666992 21.53076172 C31.35755907 21.53624286 26.87875277 21.56026114 22.39973736 21.58873367 C18.95531837 21.60737254 15.5109725 21.61256635 12.06650734 21.6140976 C10.41550853 21.61712256 8.76451095 21.62514585 7.11356163 21.63828278 C4.80114078 21.65536742 2.48946058 21.65345729 0.17700195 21.64697266 C-1.13822952 21.65061829 -2.453461 21.65426392 -3.80854797 21.65802002 C-7.48921556 21.26425662 -9.33309591 20.53312529 -12.24365234 18.29052734 C-14.71726922 14.58010203 -14.78972512 11.59190059 -14.24365234 7.29052734 C-13.02451567 4.486513 -12.12346994 2.88250188 -9.58700562 1.1758728 C-6.33239594 -0.05375567 -3.47722345 0.02030734 0 0 Z " fill="#000000" transform="translate(378.24365234375,146.70947265625)"/>
<path d="M0 0 C1.14483856 -0.0127597 2.28967712 -0.02551941 3.46920776 -0.03866577 C5.32547287 -0.04200424 5.32547287 -0.04200424 7.21923828 -0.04541016 C9.12613937 -0.05539536 9.12613937 -0.05539536 11.07156372 -0.06558228 C13.76334614 -0.0757172 16.4547248 -0.08126322 19.14648438 -0.08007812 C22.58884624 -0.07987505 26.03038144 -0.10716384 29.47254753 -0.14162254 C32.76307998 -0.1692652 36.05360548 -0.16804154 39.34423828 -0.17041016 C41.19443069 -0.19196671 41.19443069 -0.19196671 43.08200073 -0.21395874 C44.23314362 -0.20780548 45.3842865 -0.20165222 46.5703125 -0.1953125 C47.5805246 -0.19816254 48.59073669 -0.20101257 49.63156128 -0.20394897 C53.16432732 0.42374622 54.84389861 1.83991201 57.41455078 4.29052734 C59.01541705 7.49225988 58.91372167 10.81629793 58.41455078 14.29052734 C56.62091167 17.10056195 55.39574143 18.79993202 52.41455078 20.29052734 C50.5931573 20.40689918 48.76758656 20.46018042 46.94262695 20.48339844 C45.22525581 20.50749283 45.22525581 20.50749283 43.47319031 20.53207397 C38.23483028 20.57643682 32.9965579 20.61802835 27.75805664 20.640625 C24.99242035 20.65396003 22.2275227 20.68180288 19.4621582 20.72265625 C15.48146546 20.7814621 11.50113183 20.79928616 7.52001953 20.81396484 C5.66512154 20.8479689 5.66512154 20.8479689 3.77275085 20.88265991 C-5.773818 20.8590903 -5.773818 20.8590903 -8.84204102 17.9375 C-10.90254651 14.80908653 -11.58544922 13.04598059 -11.58544922 9.29052734 C-9.29760069 2.42698175 -7.25994032 0.05487379 0 0 Z " fill="#000000" transform="translate(335.58544921875,117.70947265625)"/>
<path d="M0 0 C4.54849979 3.52077753 7.86469035 7.09036325 11.125 11.8125 C11.55731934 12.4327002 11.98963867 13.05290039 12.43505859 13.69189453 C20.80293688 25.86017094 20.80293688 25.86017094 20.3828125 32.98828125 C19.40231881 38.14087566 17.02386621 42.37628059 13.125 45.875 C7.86691481 49.45049793 3.35075183 50.65697433 -3 50 C-9.84037097 47.70247082 -13.83209062 43.92288365 -17.3125 37.625 C-19.30012482 30.03588707 -17.73629019 25.18458366 -14.1328125 18.38671875 C-10.15969897 11.75889723 -4.97127181 5.88830254 0 0 Z " fill="#E02D42" transform="translate(402,419)"/>
<path d="M0 0 C1.71219727 -0.0309375 1.71219727 -0.0309375 3.45898438 -0.0625 C4.56177734 -0.06765625 5.66457031 -0.0728125 6.80078125 -0.078125 C7.80923096 -0.0874707 8.81768066 -0.09681641 9.85668945 -0.10644531 C13.17771569 0.31172617 15.00773763 1.270831 17.6875 3.25 C20.13355705 6.91908557 20.52696402 9.98618769 19.6875 14.25 C17.51175584 16.94105198 15.77684144 18.70532928 12.6875 20.25 C8.61090532 20.57399495 4.52537117 20.57453245 0.4375 20.625 C-1.26212891 20.68107422 -1.26212891 20.68107422 -2.99609375 20.73828125 C-12.37456552 20.83723347 -12.37456552 20.83723347 -16.046875 17.8515625 C-18.4584386 15.08242223 -19.19913834 14.08131881 -19.6875 10.5 C-19.1653401 5.9746142 -17.47020622 4.4828897 -14.3125 1.25 C-10.11338549 -0.84955726 -4.61356096 0.02063079 0 0 Z " fill="#040001" transform="translate(206.3125,186.75)"/>
<path d="M0 0 C1.13308594 -0.02900391 2.26617187 -0.05800781 3.43359375 -0.08789062 C9.80794162 -0.1364642 13.97525934 -0.12471589 18.75 4.3125 C20.35847182 7.52944364 20.36309149 10.83387222 19.75 14.3125 C17.57425584 17.00355198 15.83934144 18.76782928 12.75 20.3125 C8.67340532 20.63649495 4.58787117 20.63703245 0.5 20.6875 C-1.19962891 20.74357422 -1.19962891 20.74357422 -2.93359375 20.80078125 C-12.31206552 20.89973347 -12.31206552 20.89973347 -15.984375 17.9140625 C-18.3959386 15.14492223 -19.13663834 14.14381881 -19.625 10.5625 C-19.1028401 6.0371142 -17.40770622 4.5453897 -14.25 1.3125 C-10.05719275 -0.78390363 -4.60674244 0.03877729 0 0 Z " fill="#040001" transform="translate(206.25,245.6875)"/>
<path d="M0 0 C1.22847656 -0.03738281 2.45695312 -0.07476562 3.72265625 -0.11328125 C13.87831013 -0.21230713 13.87831013 -0.21230713 17.56640625 2.6171875 C19.74372554 5.36707555 20.55263218 6.43315369 20.4375 9.875 C20.44330078 10.97328125 20.44330078 10.97328125 20.44921875 12.09375 C19.66163982 14.66328125 18.70868515 16.5442098 16.71411133 18.38037109 C11.9161448 20.8100685 5.98762417 20.03577185 0.75 19.9375 C-0.52101562 19.94845703 -1.79203125 19.95941406 -3.1015625 19.97070312 C-13.63098034 19.88757614 -13.63098034 19.88757614 -18.25 15.375 C-19.41112464 12.38390012 -19.55669831 9.56125468 -19.25 6.375 C-14.57261652 -1.3668761 -8.23006946 0.09381426 0 0 Z " fill="#020000" transform="translate(206.25,275.625)"/>
<path d="M0 0 C1.92682617 -0.05607422 1.92682617 -0.05607422 3.89257812 -0.11328125 C5.13072266 -0.12488281 6.36886719 -0.13648438 7.64453125 -0.1484375 C8.77866455 -0.16825684 9.91279785 -0.18807617 11.08129883 -0.20849609 C15.14277325 0.55444691 16.61020274 2.22411852 19.1875 5.375 C19.88671875 7.65625 19.88671875 7.65625 19.875 9.875 C19.89949219 10.6071875 19.92398438 11.339375 19.94921875 12.09375 C19.01827659 14.88180243 17.68126451 16.58981908 15.34741211 18.37597656 C10.45866329 20.63716795 4.90088041 20.08396627 -0.375 20 C-2.20321289 20.02900391 -2.20321289 20.02900391 -4.06835938 20.05859375 C-13.97149115 20.00427048 -13.97149115 20.00427048 -17.08984375 16.9609375 C-19.650553 13.11697032 -20.26956687 11.03708204 -19.8125 6.375 C-14.65483965 -1.36149053 -8.63232233 0.09443615 0 0 Z " fill="#020000" transform="translate(206.8125,216.625)"/>
<path d="M0 0 C1.92682617 -0.05607422 1.92682617 -0.05607422 3.89257812 -0.11328125 C5.13072266 -0.12488281 6.36886719 -0.13648438 7.64453125 -0.1484375 C8.77866455 -0.16825684 9.91279785 -0.18807617 11.08129883 -0.20849609 C15.13841426 0.55362808 16.60880837 2.23245969 19.1875 5.375 C20.03119794 8.14191 19.81818481 10.56248668 19.1875 13.375 C17.39386089 16.1850346 16.16869065 17.88440468 13.1875 19.375 C8.75639335 19.70042291 4.31656855 19.69955369 -0.125 19.75 C-1.9802832 19.80607422 -1.9802832 19.80607422 -3.87304688 19.86328125 C-14.05501921 19.96229557 -14.05501921 19.96229557 -17.10546875 16.9765625 C-19.63744207 13.11776563 -20.26947952 11.03619115 -19.8125 6.375 C-14.65483965 -1.36149053 -8.63232233 0.09443615 0 0 Z " fill="#020000" transform="translate(206.8125,157.625)"/>
<path d="M0 0 C3.49406513 3.05730699 4.80770576 4.92315225 5.625 9.5 C4.8007349 14.11588456 3.29033886 15.70966114 0 19 C-3.50104387 20.75052194 -7.27661693 19.83477984 -11 19 C-13.69207751 17.31745156 -14.65216939 16.16267853 -15.55859375 13.1328125 C-16.19701035 9.64455688 -16.20713118 7.51782796 -14.875 4.1875 C-10.5620886 -0.84422997 -6.26188069 -2.25983194 0 0 Z " fill="#000000" transform="translate(478,148)"/>
<path d="M0 0 C2.75329021 1.79562405 4.52627461 3.05254922 6 6 C6.65271451 10.74616694 6.69934049 13.98277746 3.9375 18 C0.40055558 20.40813237 -1.72563406 21 -6 21 C-10.01519063 19.48483372 -11.60368353 18.5944747 -14 15 C-14.73446576 10.43948005 -14.59262059 6.98088926 -12.1875 3 C-8.43947606 -0.42676474 -4.91354625 -0.42358157 0 0 Z " fill="#000000" transform="translate(63,354)"/>
<path d="M0 0 C3.49890004 2.11391877 4.70578686 3.11736059 6 7 C6.38887761 11.19987818 6.45908323 13.29607238 4.125 16.875 C1.28058592 19.71941408 -0.3887432 20.20354172 -4.3125 20.375 C-7.9416224 20.32240402 -8.87436105 20.08637678 -12 17.9375 C-14.40813237 14.40055558 -15 12.27436594 -15 8 C-12.08970769 0.28772538 -7.7204063 -1.12419951 0 0 Z " fill="#000000" transform="translate(408,49)"/>
<path d="M0 0 C2.38312703 1.89428046 3.6500559 3.30011179 5 6 C5.3751455 10.97067782 5.15878799 14.05151502 2 18 C-1.77558139 20.35570463 -4.57982175 20.20910416 -8.875 19.6015625 C-11 19 -11 19 -13.5 16.8125 C-15.18356312 13.65581916 -15.92684384 11.58465187 -16 8 C-14.76852871 4.51083135 -13.58106966 2.5146617 -10.8125 0.0625 C-6.96487768 -1.39104621 -3.91164544 -1.2275038 0 0 Z " fill="#000000" transform="translate(212,404)"/>
<path d="M0 0 C3.63644344 2.28961253 5.56265451 3.81659457 7.0625 7.875 C6.97961928 12.01903601 6.14602992 14.44563794 4 18 C0.04098091 20.51245442 -2.03051132 21.13145609 -6.6875 20.5 C-10.49963533 18.77375004 -12.00243339 17.67552256 -14 14 C-14.85436433 9.64890743 -14.52868637 6.85683653 -12.1875 3.0625 C-8.47519929 -0.43766924 -4.93407072 -0.5017699 0 0 Z " fill="#000000" transform="translate(53,39)"/>
<path d="M0 0 C3.13294752 2.81161957 3.91358678 4.30869428 4.4375 8.5 C3.97294937 12.21640506 3.32637406 14.09203243 1 17 C-2.42919572 19.57189679 -5.83939486 19.502142 -10 19 C-14.00535091 16.55228556 -15.66804391 15.07397557 -17.0625 10.5625 C-16.9890512 6.37591845 -16.46492779 4.38927571 -14 1 C-8.78864171 -2.20698972 -5.58258875 -2.52796472 0 0 Z " fill="#000000" transform="translate(154,454)"/>
<path d="M0 0 C3.5420773 3.09931764 4.84372778 4.88656044 5.5 9.5625 C4.96980455 13.20759371 4.29088372 15.13639535 2 18 C-1.77581027 20.35584743 -4.57939759 20.20600527 -8.875 19.60546875 C-11 19 -11 19 -13.5 16.75 C-15.05435838 13.90034297 -15.92279919 12.24243407 -16 9 C-14.81543604 5.1830717 -13.77717558 2.71056053 -10.8125 0 C-6.92364837 -1.3827028 -3.89699632 -1.40637569 0 0 Z " fill="#000000" transform="translate(468,335)"/>
<path d="M0 0 C3.60185638 1.78935906 5.65271868 4.06029761 7.0625 7.875 C6.98245301 11.87734949 5.8892536 14.49138617 4 18 C-0.01858595 20.6790573 -3.27641721 20.69610694 -8 20 C-10.87029869 18.20606332 -12.49131638 17.01736724 -14 14 C-14.5811138 6.91041162 -14.5811138 6.91041162 -12.125 3.0625 C-8.49926305 -0.45659763 -4.89837949 -0.79973543 0 0 Z " fill="#000000" transform="translate(309,177)"/>
<path d="M0 0 C2.92937654 1.81310142 5.43647949 3.87295899 7 7 C7.40417552 9.96395382 7.56382171 12.08904926 5.953125 14.69140625 C3.2305096 18.01459858 1.5226254 19.79236926 -2.75 20.375 C-7.2753858 19.8528401 -8.7671103 18.15770622 -12 15 C-13.45147903 12.09704195 -13.37239025 10.22738221 -13 7 C-9.6221874 1.54256397 -6.46231639 -0.74565189 0 0 Z " fill="#4D5563" transform="translate(328,59)"/>
<path d="M0 0 C3.70718433 0.81785983 5.13329673 2.33819937 7.16015625 5.4765625 C7.79480821 8.28716402 7.79055099 10.66534271 7.16015625 13.4765625 C5.36651714 16.2865971 4.1413469 17.98596718 1.16015625 19.4765625 C-3.02128386 19.87103798 -5.14930423 19.92691436 -8.71484375 17.6015625 C-11.62695033 14.68945592 -11.8005268 13.8762848 -12.21484375 9.6640625 C-12.14775486 6.31571686 -11.81923122 5.44464632 -9.90234375 2.4765625 C-6.33149918 0.14458237 -4.19478356 -0.26611315 0 0 Z " fill="#040405" transform="translate(218.83984375,98.5234375)"/>
<path d="M0 0 C9.57 0 19.14 0 29 0 C29 6 29 6 27.12890625 8.34375 C22.69549578 10.69052408 18.87890772 10.58550381 13.9375 10.5 C13.03966797 10.51546875 12.14183594 10.5309375 11.21679688 10.546875 C7.27196759 10.52341133 4.75906645 10.47964854 1.37890625 8.34375 C0 6 0 6 0 0 Z " fill="#C6223E" transform="translate(148,325)"/>
<path d="M0 0 C3.29714793 0.32971479 4.6226839 0.6226839 7 3 C6.625 6.125 6.625 6.125 6 9 C3.69 9.33 1.38 9.66 -1 10 C-3 7 -3 7 -2.75 4.4375 C-2 2 -2 2 0 0 Z " fill="#4A525F" transform="translate(259,364)"/>
<path d="M0 0 C2.5625 0.3125 2.5625 0.3125 4.4375 1.5 C5.5625 3.3125 5.5625 3.3125 5.375 5.875 C4.5625 8.3125 4.5625 8.3125 2.5625 10.3125 C-0.73464793 9.98278521 -2.0601839 9.6898161 -4.4375 7.3125 C-4.6875 4.8125 -4.6875 4.8125 -4.4375 2.3125 C-2.4375 0.3125 -2.4375 0.3125 0 0 Z " fill="#4A525F" transform="translate(457.4375,265.6875)"/>
<path d="M0 0 C0.99 0.103125 1.98 0.20625 3 0.3125 C5 3.3125 5 3.3125 4.625 6 C4.41875 6.763125 4.2125 7.52625 4 8.3125 C0.625 8.9375 0.625 8.9375 -3 9.3125 C-5 7.3125 -5 7.3125 -5.25 4.8125 C-4.86676958 0.9801958 -3.75087075 0.3907157 0 0 Z " fill="#4C5462" transform="translate(84,413.6875)"/>
</svg>
